<svg xmlns="http://www.w3.org/2000/svg" xmlns:xlink="http://www.w3.org/1999/xlink" width="500" zoomAndPan="magnify" viewBox="0 0 375 374.999991" height="500" preserveAspectRatio="xMidYMid meet" version="1.0"><defs><clipPath id="f69db7b33b"><path d="M 48.671875 0 L 326.171875 0 L 326.171875 375 L 48.671875 375 Z M 48.671875 0 " clip-rule="nonzero"/></clipPath></defs><g clip-path="url(#f69db7b33b)"><path fill="#757575" d="M 309.925781 -0.0234375 L 64.917969 -0.0234375 C 55.96875 -0.0234375 48.707031 8.011719 48.707031 17.917969 L 48.707031 357.027344 C 48.707031 366.9375 55.96875 374.96875 64.917969 374.96875 L 309.925781 374.96875 C 318.875 374.96875 326.136719 366.9375 326.136719 357.027344 L 326.136719 17.917969 C 326.136719 8.011719 318.875 -0.0234375 309.925781 -0.0234375 Z M 308.128906 348.230469 C 308.128906 353.335938 304.390625 357.472656 299.78125 357.472656 L 75.0625 357.472656 C 70.453125 357.472656 66.714844 353.335938 66.714844 348.230469 L 66.714844 26.71875 C 66.714844 21.613281 70.453125 17.476562 75.0625 17.476562 L 299.78125 17.476562 C 304.390625 17.476562 308.128906 21.613281 308.128906 26.71875 Z M 308.128906 348.230469 " fill-opacity="1" fill-rule="nonzero"/></g><path fill="#000000" d="M 308.898438 1.554688 L 65.945312 1.554688 C 57.070312 1.554688 49.871094 9.523438 49.871094 19.34375 L 49.871094 355.605469 C 49.871094 365.429688 57.0625 373.398438 65.945312 373.398438 L 308.898438 373.398438 C 317.773438 373.398438 324.972656 365.429688 324.972656 355.605469 L 324.972656 19.34375 C 324.96875 9.515625 317.773438 1.554688 308.898438 1.554688 Z M 308.125 348.496094 L 66.71875 348.496094 L 66.71875 26.445312 L 308.125 26.445312 Z M 308.125 348.496094 " fill-opacity="1" fill-rule="nonzero"/><path fill="#212021" d="M 195.21875 361.453125 C 195.21875 361.964844 195.167969 362.472656 195.066406 362.976562 C 194.96875 363.480469 194.820312 363.964844 194.625 364.441406 C 194.429688 364.914062 194.1875 365.363281 193.902344 365.789062 C 193.621094 366.214844 193.296875 366.609375 192.933594 366.96875 C 192.574219 367.332031 192.179688 367.65625 191.753906 367.941406 C 191.328125 368.226562 190.878906 368.464844 190.40625 368.660156 C 189.933594 368.855469 189.445312 369.003906 188.941406 369.105469 C 188.441406 369.203125 187.933594 369.253906 187.421875 369.253906 C 186.910156 369.253906 186.402344 369.203125 185.902344 369.105469 C 185.398438 369.003906 184.910156 368.855469 184.4375 368.660156 C 183.964844 368.464844 183.515625 368.226562 183.089844 367.941406 C 182.664062 367.65625 182.269531 367.332031 181.910156 366.96875 C 181.546875 366.609375 181.222656 366.214844 180.941406 365.789062 C 180.65625 365.363281 180.414062 364.914062 180.21875 364.441406 C 180.023438 363.964844 179.875 363.480469 179.777344 362.976562 C 179.675781 362.472656 179.625 361.964844 179.625 361.453125 C 179.625 360.941406 179.675781 360.433594 179.777344 359.933594 C 179.875 359.429688 180.023438 358.941406 180.21875 358.46875 C 180.414062 357.996094 180.65625 357.546875 180.941406 357.121094 C 181.222656 356.695312 181.546875 356.300781 181.910156 355.9375 C 182.269531 355.578125 182.664062 355.253906 183.089844 354.96875 C 183.515625 354.683594 183.964844 354.445312 184.4375 354.25 C 184.910156 354.050781 185.398438 353.902344 185.902344 353.804688 C 186.402344 353.703125 186.910156 353.65625 187.421875 353.65625 C 187.933594 353.65625 188.441406 353.703125 188.941406 353.804688 C 189.445312 353.902344 189.933594 354.050781 190.40625 354.25 C 190.878906 354.445312 191.328125 354.683594 191.753906 354.96875 C 192.179688 355.253906 192.574219 355.578125 192.933594 355.9375 C 193.296875 356.300781 193.621094 356.695312 193.902344 357.121094 C 194.1875 357.546875 194.429688 357.996094 194.625 358.46875 C 194.820312 358.941406 194.96875 359.429688 195.066406 359.933594 C 195.167969 360.433594 195.21875 360.941406 195.21875 361.453125 Z M 195.21875 361.453125 " fill-opacity="1" fill-rule="nonzero"/></svg>